<?xml version="1.0" encoding="UTF-8"?>
<svg xmlns="http://www.w3.org/2000/svg" viewBox="0 0 604 225">
  <defs>
    <linearGradient id="g" x1="14" y1="0" x2="590" y2="0" gradientUnits="userSpaceOnUse" color-interpolation="linearRGB">
      <stop offset="0%" stop-color="#fbe0d0"/>
      <stop offset="6%" stop-color="#fcdebd"/>
      <stop offset="20%" stop-color="#f5e0ab"/>
      <stop offset="39%" stop-color="#e6e39e"/>
      <stop offset="61%" stop-color="#cee99a"/>
      <stop offset="80%" stop-color="#abefa3"/>
      <stop offset="94%" stop-color="#7af5b7"/>
      <stop offset="100%" stop-color="#1bf7d5"/>
    </linearGradient>
    <linearGradient id="gs" x1="14" y1="0" x2="590" y2="0" gradientUnits="userSpaceOnUse" color-interpolation="linearRGB">
      <stop offset="0%" stop-color="#83746c"/>
      <stop offset="6%" stop-color="#837362"/>
      <stop offset="20%" stop-color="#807458"/>
      <stop offset="39%" stop-color="#787650"/>
      <stop offset="61%" stop-color="#6b794e"/>
      <stop offset="80%" stop-color="#577c53"/>
      <stop offset="94%" stop-color="#3d7f5f"/>
      <stop offset="100%" stop-color="#0e806f"/>
    </linearGradient>
  </defs>
  <g fill="url(#g)">
    <rect x="30" y="14" width="8" height="12"/>
    <rect x="38" y="14" width="8" height="12"/>
    <rect x="46" y="14" width="8" height="12"/>
    <rect x="54" y="14" width="8" height="12"/>
    <rect x="62" y="14" width="8" height="12"/>
    <rect x="70" y="14" width="8" height="12"/>
    <rect x="78" y="14" width="8" height="12"/>
    <rect x="86" y="14" width="8" height="12"/>
    <rect x="94" y="14" width="8" height="12"/>
    <rect x="134" y="14" width="8" height="12"/>
    <rect x="142" y="14" width="8" height="12"/>
    <rect x="150" y="14" width="8" height="12"/>
    <rect x="158" y="14" width="8" height="12"/>
    <rect x="166" y="14" width="8" height="12"/>
    <rect x="198" y="14" width="8" height="12"/>
    <rect x="206" y="14" width="8" height="12"/>
    <rect x="214" y="14" width="8" height="12"/>
    <rect x="222" y="14" width="8" height="12"/>
    <rect x="254" y="14" width="8" height="12"/>
    <rect x="262" y="14" width="8" height="12"/>
    <rect x="270" y="14" width="8" height="12"/>
    <rect x="278" y="14" width="8" height="12"/>
    <rect x="286" y="14" width="8" height="12"/>
    <rect x="318" y="14" width="8" height="12"/>
    <rect x="326" y="14" width="8" height="12"/>
    <rect x="334" y="14" width="8" height="12"/>
    <rect x="342" y="14" width="8" height="12"/>
    <rect x="350" y="14" width="8" height="12"/>
    <rect x="430" y="14" width="8" height="12"/>
    <rect x="438" y="14" width="8" height="12"/>
    <rect x="446" y="14" width="8" height="12"/>
    <rect x="454" y="14" width="8" height="12"/>
    <rect x="462" y="14" width="8" height="12"/>
    <rect x="22" y="26" width="8" height="12"/>
    <rect x="30" y="26" width="8" height="12"/>
    <rect x="38" y="26" width="8" height="12"/>
    <rect x="46" y="26" width="8" height="12"/>
    <rect x="54" y="26" width="8" height="12"/>
    <rect x="62" y="26" width="8" height="12"/>
    <rect x="70" y="26" width="8" height="12"/>
    <rect x="78" y="26" width="8" height="12"/>
    <rect x="86" y="26" width="8" height="12"/>
    <rect x="94" y="26" width="8" height="12"/>
    <rect x="102" y="26" width="8" height="12"/>
    <rect x="126" y="26" width="8" height="12"/>
    <rect x="134" y="26" width="8" height="12"/>
    <rect x="142" y="26" width="8" height="12"/>
    <rect x="150" y="26" width="8" height="12"/>
    <rect x="158" y="26" width="8" height="12"/>
    <rect x="190" y="26" width="8" height="12"/>
    <rect x="198" y="26" width="8" height="12"/>
    <rect x="206" y="26" width="8" height="12"/>
    <rect x="214" y="26" width="8" height="12"/>
    <rect x="246" y="26" width="8" height="12"/>
    <rect x="254" y="26" width="8" height="12"/>
    <rect x="262" y="26" width="8" height="12"/>
    <rect x="270" y="26" width="8" height="12"/>
    <rect x="278" y="26" width="8" height="12"/>
    <rect x="310" y="26" width="8" height="12"/>
    <rect x="318" y="26" width="8" height="12"/>
    <rect x="326" y="26" width="8" height="12"/>
    <rect x="334" y="26" width="8" height="12"/>
    <rect x="342" y="26" width="8" height="12"/>
    <rect x="422" y="26" width="8" height="12"/>
    <rect x="430" y="26" width="8" height="12"/>
    <rect x="438" y="26" width="8" height="12"/>
    <rect x="446" y="26" width="8" height="12"/>
    <rect x="454" y="26" width="8" height="12"/>
    <rect x="14" y="38" width="8" height="12"/>
    <rect x="22" y="38" width="8" height="12"/>
    <rect x="30" y="38" width="8" height="12"/>
    <rect x="38" y="38" width="8" height="12"/>
    <rect x="78" y="38" width="8" height="12"/>
    <rect x="86" y="38" width="8" height="12"/>
    <rect x="94" y="38" width="8" height="12"/>
    <rect x="134" y="38" width="8" height="12"/>
    <rect x="142" y="38" width="8" height="12"/>
    <rect x="150" y="38" width="8" height="12"/>
    <rect x="158" y="38" width="8" height="12"/>
    <rect x="182" y="38" width="8" height="12"/>
    <rect x="190" y="38" width="8" height="12"/>
    <rect x="198" y="38" width="8" height="12"/>
    <rect x="254" y="38" width="8" height="12"/>
    <rect x="262" y="38" width="8" height="12"/>
    <rect x="270" y="38" width="8" height="12"/>
    <rect x="278" y="38" width="8" height="12"/>
    <rect x="318" y="38" width="8" height="12"/>
    <rect x="326" y="38" width="8" height="12"/>
    <rect x="334" y="38" width="8" height="12"/>
    <rect x="342" y="38" width="8" height="12"/>
    <rect x="430" y="38" width="8" height="12"/>
    <rect x="438" y="38" width="8" height="12"/>
    <rect x="446" y="38" width="8" height="12"/>
    <rect x="454" y="38" width="8" height="12"/>
    <rect x="14" y="50" width="8" height="12"/>
    <rect x="22" y="50" width="8" height="12"/>
    <rect x="30" y="50" width="8" height="12"/>
    <rect x="38" y="50" width="8" height="12"/>
    <rect x="46" y="50" width="8" height="12"/>
    <rect x="54" y="50" width="8" height="12"/>
    <rect x="62" y="50" width="8" height="12"/>
    <rect x="70" y="50" width="8" height="12"/>
    <rect x="78" y="50" width="8" height="12"/>
    <rect x="86" y="50" width="8" height="12"/>
    <rect x="94" y="50" width="8" height="12"/>
    <rect x="134" y="50" width="8" height="12"/>
    <rect x="142" y="50" width="8" height="12"/>
    <rect x="150" y="50" width="8" height="12"/>
    <rect x="158" y="50" width="8" height="12"/>
    <rect x="166" y="50" width="8" height="12"/>
    <rect x="174" y="50" width="8" height="12"/>
    <rect x="182" y="50" width="8" height="12"/>
    <rect x="190" y="50" width="8" height="12"/>
    <rect x="254" y="50" width="8" height="12"/>
    <rect x="262" y="50" width="8" height="12"/>
    <rect x="270" y="50" width="8" height="12"/>
    <rect x="278" y="50" width="8" height="12"/>
    <rect x="318" y="50" width="8" height="12"/>
    <rect x="326" y="50" width="8" height="12"/>
    <rect x="334" y="50" width="8" height="12"/>
    <rect x="342" y="50" width="8" height="12"/>
    <rect x="430" y="50" width="8" height="12"/>
    <rect x="438" y="50" width="8" height="12"/>
    <rect x="446" y="50" width="8" height="12"/>
    <rect x="454" y="50" width="8" height="12"/>
    <rect x="22" y="62" width="8" height="12"/>
    <rect x="30" y="62" width="8" height="12"/>
    <rect x="38" y="62" width="8" height="12"/>
    <rect x="46" y="62" width="8" height="12"/>
    <rect x="54" y="62" width="8" height="12"/>
    <rect x="62" y="62" width="8" height="12"/>
    <rect x="70" y="62" width="8" height="12"/>
    <rect x="78" y="62" width="8" height="12"/>
    <rect x="86" y="62" width="8" height="12"/>
    <rect x="94" y="62" width="8" height="12"/>
    <rect x="102" y="62" width="8" height="12"/>
    <rect x="134" y="62" width="8" height="12"/>
    <rect x="142" y="62" width="8" height="12"/>
    <rect x="150" y="62" width="8" height="12"/>
    <rect x="158" y="62" width="8" height="12"/>
    <rect x="166" y="62" width="8" height="12"/>
    <rect x="174" y="62" width="8" height="12"/>
    <rect x="182" y="62" width="8" height="12"/>
    <rect x="190" y="62" width="8" height="12"/>
    <rect x="198" y="62" width="8" height="12"/>
    <rect x="254" y="62" width="8" height="12"/>
    <rect x="262" y="62" width="8" height="12"/>
    <rect x="270" y="62" width="8" height="12"/>
    <rect x="278" y="62" width="8" height="12"/>
    <rect x="318" y="62" width="8" height="12"/>
    <rect x="326" y="62" width="8" height="12"/>
    <rect x="334" y="62" width="8" height="12"/>
    <rect x="342" y="62" width="8" height="12"/>
    <rect x="430" y="62" width="8" height="12"/>
    <rect x="438" y="62" width="8" height="12"/>
    <rect x="446" y="62" width="8" height="12"/>
    <rect x="454" y="62" width="8" height="12"/>
    <rect x="22" y="74" width="8" height="12"/>
    <rect x="30" y="74" width="8" height="12"/>
    <rect x="38" y="74" width="8" height="12"/>
    <rect x="78" y="74" width="8" height="12"/>
    <rect x="86" y="74" width="8" height="12"/>
    <rect x="94" y="74" width="8" height="12"/>
    <rect x="102" y="74" width="8" height="12"/>
    <rect x="134" y="74" width="8" height="12"/>
    <rect x="142" y="74" width="8" height="12"/>
    <rect x="150" y="74" width="8" height="12"/>
    <rect x="158" y="74" width="8" height="12"/>
    <rect x="174" y="74" width="8" height="12"/>
    <rect x="182" y="74" width="8" height="12"/>
    <rect x="190" y="74" width="8" height="12"/>
    <rect x="198" y="74" width="8" height="12"/>
    <rect x="206" y="74" width="8" height="12"/>
    <rect x="254" y="74" width="8" height="12"/>
    <rect x="262" y="74" width="8" height="12"/>
    <rect x="270" y="74" width="8" height="12"/>
    <rect x="278" y="74" width="8" height="12"/>
    <rect x="318" y="74" width="8" height="12"/>
    <rect x="326" y="74" width="8" height="12"/>
    <rect x="334" y="74" width="8" height="12"/>
    <rect x="342" y="74" width="8" height="12"/>
    <rect x="398" y="74" width="8" height="12"/>
    <rect x="430" y="74" width="8" height="12"/>
    <rect x="438" y="74" width="8" height="12"/>
    <rect x="446" y="74" width="8" height="12"/>
    <rect x="454" y="74" width="8" height="12"/>
    <rect x="510" y="74" width="8" height="12"/>
    <rect x="14" y="86" width="8" height="12"/>
    <rect x="22" y="86" width="8" height="12"/>
    <rect x="30" y="86" width="8" height="12"/>
    <rect x="38" y="86" width="8" height="12"/>
    <rect x="46" y="86" width="8" height="12"/>
    <rect x="54" y="86" width="8" height="12"/>
    <rect x="62" y="86" width="8" height="12"/>
    <rect x="70" y="86" width="8" height="12"/>
    <rect x="78" y="86" width="8" height="12"/>
    <rect x="86" y="86" width="8" height="12"/>
    <rect x="94" y="86" width="8" height="12"/>
    <rect x="134" y="86" width="8" height="12"/>
    <rect x="142" y="86" width="8" height="12"/>
    <rect x="150" y="86" width="8" height="12"/>
    <rect x="158" y="86" width="8" height="12"/>
    <rect x="166" y="86" width="8" height="12"/>
    <rect x="182" y="86" width="8" height="12"/>
    <rect x="190" y="86" width="8" height="12"/>
    <rect x="198" y="86" width="8" height="12"/>
    <rect x="206" y="86" width="8" height="12"/>
    <rect x="214" y="86" width="8" height="12"/>
    <rect x="222" y="86" width="8" height="12"/>
    <rect x="254" y="86" width="8" height="12"/>
    <rect x="262" y="86" width="8" height="12"/>
    <rect x="270" y="86" width="8" height="12"/>
    <rect x="278" y="86" width="8" height="12"/>
    <rect x="286" y="86" width="8" height="12"/>
    <rect x="318" y="86" width="8" height="12"/>
    <rect x="326" y="86" width="8" height="12"/>
    <rect x="334" y="86" width="8" height="12"/>
    <rect x="342" y="86" width="8" height="12"/>
    <rect x="350" y="86" width="8" height="12"/>
    <rect x="358" y="86" width="8" height="12"/>
    <rect x="366" y="86" width="8" height="12"/>
    <rect x="374" y="86" width="8" height="12"/>
    <rect x="382" y="86" width="8" height="12"/>
    <rect x="390" y="86" width="8" height="12"/>
    <rect x="398" y="86" width="8" height="12"/>
    <rect x="430" y="86" width="8" height="12"/>
    <rect x="438" y="86" width="8" height="12"/>
    <rect x="446" y="86" width="8" height="12"/>
    <rect x="454" y="86" width="8" height="12"/>
    <rect x="462" y="86" width="8" height="12"/>
    <rect x="470" y="86" width="8" height="12"/>
    <rect x="478" y="86" width="8" height="12"/>
    <rect x="486" y="86" width="8" height="12"/>
    <rect x="494" y="86" width="8" height="12"/>
    <rect x="502" y="86" width="8" height="12"/>
    <rect x="510" y="86" width="8" height="12"/>
    <rect x="22" y="98" width="8" height="12"/>
    <rect x="30" y="98" width="8" height="12"/>
    <rect x="38" y="98" width="8" height="12"/>
    <rect x="46" y="98" width="8" height="12"/>
    <rect x="54" y="98" width="8" height="12"/>
    <rect x="62" y="98" width="8" height="12"/>
    <rect x="70" y="98" width="8" height="12"/>
    <rect x="78" y="98" width="8" height="12"/>
    <rect x="86" y="98" width="8" height="12"/>
    <rect x="126" y="98" width="8" height="12"/>
    <rect x="134" y="98" width="8" height="12"/>
    <rect x="142" y="98" width="8" height="12"/>
    <rect x="150" y="98" width="8" height="12"/>
    <rect x="158" y="98" width="8" height="12"/>
    <rect x="190" y="98" width="8" height="12"/>
    <rect x="198" y="98" width="8" height="12"/>
    <rect x="206" y="98" width="8" height="12"/>
    <rect x="214" y="98" width="8" height="12"/>
    <rect x="246" y="98" width="8" height="12"/>
    <rect x="254" y="98" width="8" height="12"/>
    <rect x="262" y="98" width="8" height="12"/>
    <rect x="270" y="98" width="8" height="12"/>
    <rect x="278" y="98" width="8" height="12"/>
    <rect x="310" y="98" width="8" height="12"/>
    <rect x="318" y="98" width="8" height="12"/>
    <rect x="326" y="98" width="8" height="12"/>
    <rect x="334" y="98" width="8" height="12"/>
    <rect x="342" y="98" width="8" height="12"/>
    <rect x="350" y="98" width="8" height="12"/>
    <rect x="358" y="98" width="8" height="12"/>
    <rect x="366" y="98" width="8" height="12"/>
    <rect x="374" y="98" width="8" height="12"/>
    <rect x="382" y="98" width="8" height="12"/>
    <rect x="390" y="98" width="8" height="12"/>
    <rect x="422" y="98" width="8" height="12"/>
    <rect x="430" y="98" width="8" height="12"/>
    <rect x="438" y="98" width="8" height="12"/>
    <rect x="446" y="98" width="8" height="12"/>
    <rect x="454" y="98" width="8" height="12"/>
    <rect x="462" y="98" width="8" height="12"/>
    <rect x="470" y="98" width="8" height="12"/>
    <rect x="478" y="98" width="8" height="12"/>
    <rect x="486" y="98" width="8" height="12"/>
    <rect x="494" y="98" width="8" height="12"/>
    <rect x="502" y="98" width="8" height="12"/>
    <rect x="22" y="115" width="8" height="12"/>
    <rect x="30" y="115" width="8" height="12"/>
    <rect x="38" y="115" width="8" height="12"/>
    <rect x="46" y="115" width="8" height="12"/>
    <rect x="54" y="115" width="8" height="12"/>
    <rect x="62" y="115" width="8" height="12"/>
    <rect x="70" y="115" width="8" height="12"/>
    <rect x="78" y="115" width="8" height="12"/>
    <rect x="86" y="115" width="8" height="12"/>
    <rect x="94" y="115" width="8" height="12"/>
    <rect x="102" y="115" width="8" height="12"/>
    <rect x="158" y="115" width="8" height="12"/>
    <rect x="166" y="115" width="8" height="12"/>
    <rect x="174" y="115" width="8" height="12"/>
    <rect x="182" y="115" width="8" height="12"/>
    <rect x="190" y="115" width="8" height="12"/>
    <rect x="198" y="115" width="8" height="12"/>
    <rect x="206" y="115" width="8" height="12"/>
    <rect x="262" y="115" width="8" height="12"/>
    <rect x="270" y="115" width="8" height="12"/>
    <rect x="278" y="115" width="8" height="12"/>
    <rect x="286" y="115" width="8" height="12"/>
    <rect x="294" y="115" width="8" height="12"/>
    <rect x="302" y="115" width="8" height="12"/>
    <rect x="310" y="115" width="8" height="12"/>
    <rect x="318" y="115" width="8" height="12"/>
    <rect x="326" y="115" width="8" height="12"/>
    <rect x="334" y="115" width="8" height="12"/>
    <rect x="342" y="115" width="8" height="12"/>
    <rect x="406" y="115" width="8" height="12"/>
    <rect x="414" y="115" width="8" height="12"/>
    <rect x="422" y="115" width="8" height="12"/>
    <rect x="430" y="115" width="8" height="12"/>
    <rect x="438" y="115" width="8" height="12"/>
    <rect x="446" y="115" width="8" height="12"/>
    <rect x="454" y="115" width="8" height="12"/>
    <rect x="462" y="115" width="8" height="12"/>
    <rect x="470" y="115" width="8" height="12"/>
    <rect x="510" y="115" width="8" height="12"/>
    <rect x="518" y="115" width="8" height="12"/>
    <rect x="526" y="115" width="8" height="12"/>
    <rect x="534" y="115" width="8" height="12"/>
    <rect x="542" y="115" width="8" height="12"/>
    <rect x="550" y="115" width="8" height="12"/>
    <rect x="558" y="115" width="8" height="12"/>
    <rect x="566" y="115" width="8" height="12"/>
    <rect x="574" y="115" width="8" height="12"/>
    <rect x="582" y="115" width="8" height="12"/>
    <rect x="14" y="127" width="8" height="12"/>
    <rect x="22" y="127" width="8" height="12"/>
    <rect x="30" y="127" width="8" height="12"/>
    <rect x="38" y="127" width="8" height="12"/>
    <rect x="46" y="127" width="8" height="12"/>
    <rect x="54" y="127" width="8" height="12"/>
    <rect x="62" y="127" width="8" height="12"/>
    <rect x="70" y="127" width="8" height="12"/>
    <rect x="78" y="127" width="8" height="12"/>
    <rect x="86" y="127" width="8" height="12"/>
    <rect x="94" y="127" width="8" height="12"/>
    <rect x="102" y="127" width="8" height="12"/>
    <rect x="142" y="127" width="8" height="12"/>
    <rect x="150" y="127" width="8" height="12"/>
    <rect x="158" y="127" width="8" height="12"/>
    <rect x="166" y="127" width="8" height="12"/>
    <rect x="174" y="127" width="8" height="12"/>
    <rect x="182" y="127" width="8" height="12"/>
    <rect x="190" y="127" width="8" height="12"/>
    <rect x="198" y="127" width="8" height="12"/>
    <rect x="206" y="127" width="8" height="12"/>
    <rect x="214" y="127" width="8" height="12"/>
    <rect x="222" y="127" width="8" height="12"/>
    <rect x="254" y="127" width="8" height="12"/>
    <rect x="262" y="127" width="8" height="12"/>
    <rect x="270" y="127" width="8" height="12"/>
    <rect x="278" y="127" width="8" height="12"/>
    <rect x="286" y="127" width="8" height="12"/>
    <rect x="294" y="127" width="8" height="12"/>
    <rect x="302" y="127" width="8" height="12"/>
    <rect x="310" y="127" width="8" height="12"/>
    <rect x="318" y="127" width="8" height="12"/>
    <rect x="326" y="127" width="8" height="12"/>
    <rect x="334" y="127" width="8" height="12"/>
    <rect x="342" y="127" width="8" height="12"/>
    <rect x="350" y="127" width="8" height="12"/>
    <rect x="398" y="127" width="8" height="12"/>
    <rect x="406" y="127" width="8" height="12"/>
    <rect x="414" y="127" width="8" height="12"/>
    <rect x="422" y="127" width="8" height="12"/>
    <rect x="430" y="127" width="8" height="12"/>
    <rect x="438" y="127" width="8" height="12"/>
    <rect x="446" y="127" width="8" height="12"/>
    <rect x="454" y="127" width="8" height="12"/>
    <rect x="462" y="127" width="8" height="12"/>
    <rect x="470" y="127" width="8" height="12"/>
    <rect x="478" y="127" width="8" height="12"/>
    <rect x="502" y="127" width="8" height="12"/>
    <rect x="510" y="127" width="8" height="12"/>
    <rect x="518" y="127" width="8" height="12"/>
    <rect x="526" y="127" width="8" height="12"/>
    <rect x="534" y="127" width="8" height="12"/>
    <rect x="542" y="127" width="8" height="12"/>
    <rect x="550" y="127" width="8" height="12"/>
    <rect x="558" y="127" width="8" height="12"/>
    <rect x="566" y="127" width="8" height="12"/>
    <rect x="574" y="127" width="8" height="12"/>
    <rect x="582" y="127" width="8" height="12"/>
    <rect x="22" y="139" width="8" height="12"/>
    <rect x="30" y="139" width="8" height="12"/>
    <rect x="38" y="139" width="8" height="12"/>
    <rect x="46" y="139" width="8" height="12"/>
    <rect x="78" y="139" width="8" height="12"/>
    <rect x="94" y="139" width="8" height="12"/>
    <rect x="134" y="139" width="8" height="12"/>
    <rect x="142" y="139" width="8" height="12"/>
    <rect x="150" y="139" width="8" height="12"/>
    <rect x="198" y="139" width="8" height="12"/>
    <rect x="206" y="139" width="8" height="12"/>
    <rect x="214" y="139" width="8" height="12"/>
    <rect x="222" y="139" width="8" height="12"/>
    <rect x="230" y="139" width="8" height="12"/>
    <rect x="262" y="139" width="8" height="12"/>
    <rect x="270" y="139" width="8" height="12"/>
    <rect x="278" y="139" width="8" height="12"/>
    <rect x="286" y="139" width="8" height="12"/>
    <rect x="326" y="139" width="8" height="12"/>
    <rect x="334" y="139" width="8" height="12"/>
    <rect x="342" y="139" width="8" height="12"/>
    <rect x="350" y="139" width="8" height="12"/>
    <rect x="390" y="139" width="8" height="12"/>
    <rect x="398" y="139" width="8" height="12"/>
    <rect x="406" y="139" width="8" height="12"/>
    <rect x="454" y="139" width="8" height="12"/>
    <rect x="462" y="139" width="8" height="12"/>
    <rect x="470" y="139" width="8" height="12"/>
    <rect x="510" y="139" width="8" height="12"/>
    <rect x="518" y="139" width="8" height="12"/>
    <rect x="526" y="139" width="8" height="12"/>
    <rect x="534" y="139" width="8" height="12"/>
    <rect x="558" y="139" width="8" height="12"/>
    <rect x="574" y="139" width="8" height="12"/>
    <rect x="22" y="151" width="8" height="12"/>
    <rect x="30" y="151" width="8" height="12"/>
    <rect x="38" y="151" width="8" height="12"/>
    <rect x="46" y="151" width="8" height="12"/>
    <rect x="54" y="151" width="8" height="12"/>
    <rect x="62" y="151" width="8" height="12"/>
    <rect x="70" y="151" width="8" height="12"/>
    <rect x="78" y="151" width="8" height="12"/>
    <rect x="126" y="151" width="8" height="12"/>
    <rect x="134" y="151" width="8" height="12"/>
    <rect x="142" y="151" width="8" height="12"/>
    <rect x="150" y="151" width="8" height="12"/>
    <rect x="206" y="151" width="8" height="12"/>
    <rect x="214" y="151" width="8" height="12"/>
    <rect x="222" y="151" width="8" height="12"/>
    <rect x="230" y="151" width="8" height="12"/>
    <rect x="262" y="151" width="8" height="12"/>
    <rect x="270" y="151" width="8" height="12"/>
    <rect x="278" y="151" width="8" height="12"/>
    <rect x="286" y="151" width="8" height="12"/>
    <rect x="294" y="151" width="8" height="12"/>
    <rect x="302" y="151" width="8" height="12"/>
    <rect x="310" y="151" width="8" height="12"/>
    <rect x="318" y="151" width="8" height="12"/>
    <rect x="326" y="151" width="8" height="12"/>
    <rect x="334" y="151" width="8" height="12"/>
    <rect x="342" y="151" width="8" height="12"/>
    <rect x="382" y="151" width="8" height="12"/>
    <rect x="390" y="151" width="8" height="12"/>
    <rect x="398" y="151" width="8" height="12"/>
    <rect x="406" y="151" width="8" height="12"/>
    <rect x="510" y="151" width="8" height="12"/>
    <rect x="518" y="151" width="8" height="12"/>
    <rect x="526" y="151" width="8" height="12"/>
    <rect x="534" y="151" width="8" height="12"/>
    <rect x="542" y="151" width="8" height="12"/>
    <rect x="550" y="151" width="8" height="12"/>
    <rect x="558" y="151" width="8" height="12"/>
    <rect x="22" y="163" width="8" height="12"/>
    <rect x="30" y="163" width="8" height="12"/>
    <rect x="38" y="163" width="8" height="12"/>
    <rect x="46" y="163" width="8" height="12"/>
    <rect x="54" y="163" width="8" height="12"/>
    <rect x="62" y="163" width="8" height="12"/>
    <rect x="70" y="163" width="8" height="12"/>
    <rect x="78" y="163" width="8" height="12"/>
    <rect x="126" y="163" width="8" height="12"/>
    <rect x="134" y="163" width="8" height="12"/>
    <rect x="142" y="163" width="8" height="12"/>
    <rect x="150" y="163" width="8" height="12"/>
    <rect x="206" y="163" width="8" height="12"/>
    <rect x="214" y="163" width="8" height="12"/>
    <rect x="222" y="163" width="8" height="12"/>
    <rect x="230" y="163" width="8" height="12"/>
    <rect x="262" y="163" width="8" height="12"/>
    <rect x="270" y="163" width="8" height="12"/>
    <rect x="278" y="163" width="8" height="12"/>
    <rect x="286" y="163" width="8" height="12"/>
    <rect x="294" y="163" width="8" height="12"/>
    <rect x="302" y="163" width="8" height="12"/>
    <rect x="310" y="163" width="8" height="12"/>
    <rect x="318" y="163" width="8" height="12"/>
    <rect x="326" y="163" width="8" height="12"/>
    <rect x="334" y="163" width="8" height="12"/>
    <rect x="342" y="163" width="8" height="12"/>
    <rect x="350" y="163" width="8" height="12"/>
    <rect x="382" y="163" width="8" height="12"/>
    <rect x="390" y="163" width="8" height="12"/>
    <rect x="398" y="163" width="8" height="12"/>
    <rect x="406" y="163" width="8" height="12"/>
    <rect x="446" y="163" width="8" height="12"/>
    <rect x="454" y="163" width="8" height="12"/>
    <rect x="462" y="163" width="8" height="12"/>
    <rect x="470" y="163" width="8" height="12"/>
    <rect x="478" y="163" width="8" height="12"/>
    <rect x="510" y="163" width="8" height="12"/>
    <rect x="518" y="163" width="8" height="12"/>
    <rect x="526" y="163" width="8" height="12"/>
    <rect x="534" y="163" width="8" height="12"/>
    <rect x="542" y="163" width="8" height="12"/>
    <rect x="550" y="163" width="8" height="12"/>
    <rect x="558" y="163" width="8" height="12"/>
    <rect x="22" y="175" width="8" height="12"/>
    <rect x="30" y="175" width="8" height="12"/>
    <rect x="38" y="175" width="8" height="12"/>
    <rect x="46" y="175" width="8" height="12"/>
    <rect x="70" y="175" width="8" height="12"/>
    <rect x="126" y="175" width="8" height="12"/>
    <rect x="134" y="175" width="8" height="12"/>
    <rect x="142" y="175" width="8" height="12"/>
    <rect x="150" y="175" width="8" height="12"/>
    <rect x="158" y="175" width="8" height="12"/>
    <rect x="206" y="175" width="8" height="12"/>
    <rect x="214" y="175" width="8" height="12"/>
    <rect x="222" y="175" width="8" height="12"/>
    <rect x="262" y="175" width="8" height="12"/>
    <rect x="270" y="175" width="8" height="12"/>
    <rect x="278" y="175" width="8" height="12"/>
    <rect x="286" y="175" width="8" height="12"/>
    <rect x="326" y="175" width="8" height="12"/>
    <rect x="334" y="175" width="8" height="12"/>
    <rect x="342" y="175" width="8" height="12"/>
    <rect x="350" y="175" width="8" height="12"/>
    <rect x="382" y="175" width="8" height="12"/>
    <rect x="390" y="175" width="8" height="12"/>
    <rect x="398" y="175" width="8" height="12"/>
    <rect x="406" y="175" width="8" height="12"/>
    <rect x="414" y="175" width="8" height="12"/>
    <rect x="438" y="175" width="8" height="12"/>
    <rect x="446" y="175" width="8" height="12"/>
    <rect x="454" y="175" width="8" height="12"/>
    <rect x="462" y="175" width="8" height="12"/>
    <rect x="470" y="175" width="8" height="12"/>
    <rect x="510" y="175" width="8" height="12"/>
    <rect x="518" y="175" width="8" height="12"/>
    <rect x="526" y="175" width="8" height="12"/>
    <rect x="534" y="175" width="8" height="12"/>
    <rect x="550" y="175" width="8" height="12"/>
    <rect x="582" y="175" width="8" height="12"/>
    <rect x="22" y="187" width="8" height="12"/>
    <rect x="30" y="187" width="8" height="12"/>
    <rect x="38" y="187" width="8" height="12"/>
    <rect x="46" y="187" width="8" height="12"/>
    <rect x="54" y="187" width="8" height="12"/>
    <rect x="134" y="187" width="8" height="12"/>
    <rect x="142" y="187" width="8" height="12"/>
    <rect x="150" y="187" width="8" height="12"/>
    <rect x="158" y="187" width="8" height="12"/>
    <rect x="166" y="187" width="8" height="12"/>
    <rect x="174" y="187" width="8" height="12"/>
    <rect x="182" y="187" width="8" height="12"/>
    <rect x="190" y="187" width="8" height="12"/>
    <rect x="198" y="187" width="8" height="12"/>
    <rect x="206" y="187" width="8" height="12"/>
    <rect x="214" y="187" width="8" height="12"/>
    <rect x="262" y="187" width="8" height="12"/>
    <rect x="270" y="187" width="8" height="12"/>
    <rect x="278" y="187" width="8" height="12"/>
    <rect x="286" y="187" width="8" height="12"/>
    <rect x="294" y="187" width="8" height="12"/>
    <rect x="326" y="187" width="8" height="12"/>
    <rect x="334" y="187" width="8" height="12"/>
    <rect x="342" y="187" width="8" height="12"/>
    <rect x="350" y="187" width="8" height="12"/>
    <rect x="358" y="187" width="8" height="12"/>
    <rect x="390" y="187" width="8" height="12"/>
    <rect x="398" y="187" width="8" height="12"/>
    <rect x="406" y="187" width="8" height="12"/>
    <rect x="414" y="187" width="8" height="12"/>
    <rect x="422" y="187" width="8" height="12"/>
    <rect x="430" y="187" width="8" height="12"/>
    <rect x="438" y="187" width="8" height="12"/>
    <rect x="446" y="187" width="8" height="12"/>
    <rect x="454" y="187" width="8" height="12"/>
    <rect x="462" y="187" width="8" height="12"/>
    <rect x="470" y="187" width="8" height="12"/>
    <rect x="510" y="187" width="8" height="12"/>
    <rect x="518" y="187" width="8" height="12"/>
    <rect x="526" y="187" width="8" height="12"/>
    <rect x="534" y="187" width="8" height="12"/>
    <rect x="542" y="187" width="8" height="12"/>
    <rect x="550" y="187" width="8" height="12"/>
    <rect x="558" y="187" width="8" height="12"/>
    <rect x="566" y="187" width="8" height="12"/>
    <rect x="574" y="187" width="8" height="12"/>
    <rect x="582" y="187" width="8" height="12"/>
    <rect x="14" y="199" width="8" height="12"/>
    <rect x="22" y="199" width="8" height="12"/>
    <rect x="30" y="199" width="8" height="12"/>
    <rect x="38" y="199" width="8" height="12"/>
    <rect x="46" y="199" width="8" height="12"/>
    <rect x="150" y="199" width="8" height="12"/>
    <rect x="158" y="199" width="8" height="12"/>
    <rect x="166" y="199" width="8" height="12"/>
    <rect x="174" y="199" width="8" height="12"/>
    <rect x="182" y="199" width="8" height="12"/>
    <rect x="190" y="199" width="8" height="12"/>
    <rect x="198" y="199" width="8" height="12"/>
    <rect x="254" y="199" width="8" height="12"/>
    <rect x="262" y="199" width="8" height="12"/>
    <rect x="270" y="199" width="8" height="12"/>
    <rect x="278" y="199" width="8" height="12"/>
    <rect x="286" y="199" width="8" height="12"/>
    <rect x="318" y="199" width="8" height="12"/>
    <rect x="326" y="199" width="8" height="12"/>
    <rect x="334" y="199" width="8" height="12"/>
    <rect x="342" y="199" width="8" height="12"/>
    <rect x="350" y="199" width="8" height="12"/>
    <rect x="398" y="199" width="8" height="12"/>
    <rect x="406" y="199" width="8" height="12"/>
    <rect x="414" y="199" width="8" height="12"/>
    <rect x="422" y="199" width="8" height="12"/>
    <rect x="430" y="199" width="8" height="12"/>
    <rect x="438" y="199" width="8" height="12"/>
    <rect x="446" y="199" width="8" height="12"/>
    <rect x="454" y="199" width="8" height="12"/>
    <rect x="462" y="199" width="8" height="12"/>
    <rect x="502" y="199" width="8" height="12"/>
    <rect x="510" y="199" width="8" height="12"/>
    <rect x="518" y="199" width="8" height="12"/>
    <rect x="526" y="199" width="8" height="12"/>
    <rect x="534" y="199" width="8" height="12"/>
    <rect x="542" y="199" width="8" height="12"/>
    <rect x="550" y="199" width="8" height="12"/>
    <rect x="558" y="199" width="8" height="12"/>
    <rect x="566" y="199" width="8" height="12"/>
    <rect x="574" y="199" width="8" height="12"/>
  </g>
  <g fill="url(#gs)">
    <rect x="46" y="26" width="8" height="12"/>
    <rect x="54" y="26" width="8" height="12"/>
    <rect x="62" y="26" width="8" height="12"/>
    <rect x="70" y="26" width="8" height="12"/>
    <rect x="78" y="26" width="8" height="12"/>
    <rect x="126" y="26" width="8" height="12"/>
    <rect x="134" y="26" width="8" height="12"/>
    <rect x="214" y="26" width="8" height="12"/>
    <rect x="246" y="26" width="8" height="12"/>
    <rect x="254" y="26" width="8" height="12"/>
    <rect x="310" y="26" width="8" height="12"/>
    <rect x="318" y="26" width="8" height="12"/>
    <rect x="422" y="26" width="8" height="12"/>
    <rect x="430" y="26" width="8" height="12"/>
    <rect x="14" y="38" width="8" height="12"/>
    <rect x="78" y="38" width="8" height="12"/>
    <rect x="86" y="38" width="8" height="12"/>
    <rect x="94" y="38" width="8" height="12"/>
    <rect x="134" y="38" width="8" height="12"/>
    <rect x="254" y="38" width="8" height="12"/>
    <rect x="318" y="38" width="8" height="12"/>
    <rect x="430" y="38" width="8" height="12"/>
    <rect x="14" y="50" width="8" height="12"/>
    <rect x="22" y="50" width="8" height="12"/>
    <rect x="134" y="50" width="8" height="12"/>
    <rect x="254" y="50" width="8" height="12"/>
    <rect x="318" y="50" width="8" height="12"/>
    <rect x="430" y="50" width="8" height="12"/>
    <rect x="22" y="62" width="8" height="12"/>
    <rect x="30" y="62" width="8" height="12"/>
    <rect x="38" y="62" width="8" height="12"/>
    <rect x="46" y="62" width="8" height="12"/>
    <rect x="54" y="62" width="8" height="12"/>
    <rect x="62" y="62" width="8" height="12"/>
    <rect x="70" y="62" width="8" height="12"/>
    <rect x="78" y="62" width="8" height="12"/>
    <rect x="134" y="62" width="8" height="12"/>
    <rect x="166" y="62" width="8" height="12"/>
    <rect x="174" y="62" width="8" height="12"/>
    <rect x="254" y="62" width="8" height="12"/>
    <rect x="318" y="62" width="8" height="12"/>
    <rect x="430" y="62" width="8" height="12"/>
    <rect x="78" y="74" width="8" height="12"/>
    <rect x="134" y="74" width="8" height="12"/>
    <rect x="174" y="74" width="8" height="12"/>
    <rect x="182" y="74" width="8" height="12"/>
    <rect x="254" y="74" width="8" height="12"/>
    <rect x="318" y="74" width="8" height="12"/>
    <rect x="430" y="74" width="8" height="12"/>
    <rect x="14" y="86" width="8" height="12"/>
    <rect x="22" y="86" width="8" height="12"/>
    <rect x="182" y="86" width="8" height="12"/>
    <rect x="190" y="86" width="8" height="12"/>
    <rect x="22" y="98" width="8" height="12"/>
    <rect x="30" y="98" width="8" height="12"/>
    <rect x="38" y="98" width="8" height="12"/>
    <rect x="46" y="98" width="8" height="12"/>
    <rect x="54" y="98" width="8" height="12"/>
    <rect x="62" y="98" width="8" height="12"/>
    <rect x="70" y="98" width="8" height="12"/>
    <rect x="78" y="98" width="8" height="12"/>
    <rect x="86" y="98" width="8" height="12"/>
    <rect x="126" y="98" width="8" height="12"/>
    <rect x="134" y="98" width="8" height="12"/>
    <rect x="142" y="98" width="8" height="12"/>
    <rect x="150" y="98" width="8" height="12"/>
    <rect x="158" y="98" width="8" height="12"/>
    <rect x="190" y="98" width="8" height="12"/>
    <rect x="198" y="98" width="8" height="12"/>
    <rect x="206" y="98" width="8" height="12"/>
    <rect x="214" y="98" width="8" height="12"/>
    <rect x="246" y="98" width="8" height="12"/>
    <rect x="254" y="98" width="8" height="12"/>
    <rect x="262" y="98" width="8" height="12"/>
    <rect x="270" y="98" width="8" height="12"/>
    <rect x="278" y="98" width="8" height="12"/>
    <rect x="310" y="98" width="8" height="12"/>
    <rect x="318" y="98" width="8" height="12"/>
    <rect x="326" y="98" width="8" height="12"/>
    <rect x="334" y="98" width="8" height="12"/>
    <rect x="342" y="98" width="8" height="12"/>
    <rect x="350" y="98" width="8" height="12"/>
    <rect x="358" y="98" width="8" height="12"/>
    <rect x="366" y="98" width="8" height="12"/>
    <rect x="374" y="98" width="8" height="12"/>
    <rect x="382" y="98" width="8" height="12"/>
    <rect x="390" y="98" width="8" height="12"/>
    <rect x="422" y="98" width="8" height="12"/>
    <rect x="430" y="98" width="8" height="12"/>
    <rect x="438" y="98" width="8" height="12"/>
    <rect x="446" y="98" width="8" height="12"/>
    <rect x="454" y="98" width="8" height="12"/>
    <rect x="462" y="98" width="8" height="12"/>
    <rect x="470" y="98" width="8" height="12"/>
    <rect x="478" y="98" width="8" height="12"/>
    <rect x="486" y="98" width="8" height="12"/>
    <rect x="494" y="98" width="8" height="12"/>
    <rect x="502" y="98" width="8" height="12"/>
    <rect x="14" y="127" width="8" height="12"/>
    <rect x="22" y="127" width="8" height="12"/>
    <rect x="54" y="127" width="8" height="12"/>
    <rect x="62" y="127" width="8" height="12"/>
    <rect x="70" y="127" width="8" height="12"/>
    <rect x="78" y="127" width="8" height="12"/>
    <rect x="86" y="127" width="8" height="12"/>
    <rect x="94" y="127" width="8" height="12"/>
    <rect x="166" y="127" width="8" height="12"/>
    <rect x="174" y="127" width="8" height="12"/>
    <rect x="182" y="127" width="8" height="12"/>
    <rect x="190" y="127" width="8" height="12"/>
    <rect x="198" y="127" width="8" height="12"/>
    <rect x="254" y="127" width="8" height="12"/>
    <rect x="262" y="127" width="8" height="12"/>
    <rect x="294" y="127" width="8" height="12"/>
    <rect x="302" y="127" width="8" height="12"/>
    <rect x="310" y="127" width="8" height="12"/>
    <rect x="318" y="127" width="8" height="12"/>
    <rect x="326" y="127" width="8" height="12"/>
    <rect x="422" y="127" width="8" height="12"/>
    <rect x="430" y="127" width="8" height="12"/>
    <rect x="438" y="127" width="8" height="12"/>
    <rect x="446" y="127" width="8" height="12"/>
    <rect x="454" y="127" width="8" height="12"/>
    <rect x="502" y="127" width="8" height="12"/>
    <rect x="510" y="127" width="8" height="12"/>
    <rect x="542" y="127" width="8" height="12"/>
    <rect x="550" y="127" width="8" height="12"/>
    <rect x="558" y="127" width="8" height="12"/>
    <rect x="566" y="127" width="8" height="12"/>
    <rect x="574" y="127" width="8" height="12"/>
    <rect x="22" y="139" width="8" height="12"/>
    <rect x="94" y="139" width="8" height="12"/>
    <rect x="198" y="139" width="8" height="12"/>
    <rect x="206" y="139" width="8" height="12"/>
    <rect x="262" y="139" width="8" height="12"/>
    <rect x="326" y="139" width="8" height="12"/>
    <rect x="454" y="139" width="8" height="12"/>
    <rect x="462" y="139" width="8" height="12"/>
    <rect x="470" y="139" width="8" height="12"/>
    <rect x="510" y="139" width="8" height="12"/>
    <rect x="574" y="139" width="8" height="12"/>
    <rect x="22" y="151" width="8" height="12"/>
    <rect x="126" y="151" width="8" height="12"/>
    <rect x="206" y="151" width="8" height="12"/>
    <rect x="262" y="151" width="8" height="12"/>
    <rect x="382" y="151" width="8" height="12"/>
    <rect x="510" y="151" width="8" height="12"/>
    <rect x="22" y="163" width="8" height="12"/>
    <rect x="54" y="163" width="8" height="12"/>
    <rect x="62" y="163" width="8" height="12"/>
    <rect x="70" y="163" width="8" height="12"/>
    <rect x="126" y="163" width="8" height="12"/>
    <rect x="206" y="163" width="8" height="12"/>
    <rect x="262" y="163" width="8" height="12"/>
    <rect x="294" y="163" width="8" height="12"/>
    <rect x="302" y="163" width="8" height="12"/>
    <rect x="310" y="163" width="8" height="12"/>
    <rect x="318" y="163" width="8" height="12"/>
    <rect x="326" y="163" width="8" height="12"/>
    <rect x="382" y="163" width="8" height="12"/>
    <rect x="510" y="163" width="8" height="12"/>
    <rect x="542" y="163" width="8" height="12"/>
    <rect x="550" y="163" width="8" height="12"/>
    <rect x="22" y="175" width="8" height="12"/>
    <rect x="70" y="175" width="8" height="12"/>
    <rect x="126" y="175" width="8" height="12"/>
    <rect x="134" y="175" width="8" height="12"/>
    <rect x="262" y="175" width="8" height="12"/>
    <rect x="326" y="175" width="8" height="12"/>
    <rect x="382" y="175" width="8" height="12"/>
    <rect x="390" y="175" width="8" height="12"/>
    <rect x="438" y="175" width="8" height="12"/>
    <rect x="446" y="175" width="8" height="12"/>
    <rect x="510" y="175" width="8" height="12"/>
    <rect x="550" y="175" width="8" height="12"/>
    <rect x="134" y="187" width="8" height="12"/>
    <rect x="142" y="187" width="8" height="12"/>
    <rect x="150" y="187" width="8" height="12"/>
    <rect x="214" y="187" width="8" height="12"/>
    <rect x="390" y="187" width="8" height="12"/>
    <rect x="398" y="187" width="8" height="12"/>
    <rect x="14" y="199" width="8" height="12"/>
    <rect x="22" y="199" width="8" height="12"/>
    <rect x="30" y="199" width="8" height="12"/>
    <rect x="38" y="199" width="8" height="12"/>
    <rect x="46" y="199" width="8" height="12"/>
    <rect x="150" y="199" width="8" height="12"/>
    <rect x="158" y="199" width="8" height="12"/>
    <rect x="166" y="199" width="8" height="12"/>
    <rect x="174" y="199" width="8" height="12"/>
    <rect x="182" y="199" width="8" height="12"/>
    <rect x="190" y="199" width="8" height="12"/>
    <rect x="198" y="199" width="8" height="12"/>
    <rect x="254" y="199" width="8" height="12"/>
    <rect x="262" y="199" width="8" height="12"/>
    <rect x="270" y="199" width="8" height="12"/>
    <rect x="278" y="199" width="8" height="12"/>
    <rect x="286" y="199" width="8" height="12"/>
    <rect x="318" y="199" width="8" height="12"/>
    <rect x="326" y="199" width="8" height="12"/>
    <rect x="334" y="199" width="8" height="12"/>
    <rect x="342" y="199" width="8" height="12"/>
    <rect x="350" y="199" width="8" height="12"/>
    <rect x="398" y="199" width="8" height="12"/>
    <rect x="406" y="199" width="8" height="12"/>
    <rect x="414" y="199" width="8" height="12"/>
    <rect x="422" y="199" width="8" height="12"/>
    <rect x="430" y="199" width="8" height="12"/>
    <rect x="438" y="199" width="8" height="12"/>
    <rect x="446" y="199" width="8" height="12"/>
    <rect x="454" y="199" width="8" height="12"/>
    <rect x="462" y="199" width="8" height="12"/>
    <rect x="502" y="199" width="8" height="12"/>
    <rect x="510" y="199" width="8" height="12"/>
    <rect x="518" y="199" width="8" height="12"/>
    <rect x="526" y="199" width="8" height="12"/>
    <rect x="534" y="199" width="8" height="12"/>
    <rect x="542" y="199" width="8" height="12"/>
    <rect x="550" y="199" width="8" height="12"/>
    <rect x="558" y="199" width="8" height="12"/>
    <rect x="566" y="199" width="8" height="12"/>
    <rect x="574" y="199" width="8" height="12"/>
  </g>
</svg>
